HIERARCHY
ROOT Hips
{
	OFFSET 0.000000 0.000000 0.000000
	CHANNELS 6 Xposition Yposition Zposition Zrotation Yrotation Xrotation 
	JOINT LHipJoint
	{
		OFFSET 0.000000 0.000000 0.000000
		CHANNELS 3 Zrotation Yrotation Xrotation
		JOINT LeftUpLeg
		{
			OFFSET 1.363060 -1.794630 0.839290
			CHANNELS 3 Zrotation Yrotation Xrotation
			JOINT LeftLeg
			{
				OFFSET 2.448110 -6.726130 0.000000
				CHANNELS 3 Zrotation Yrotation Xrotation
				JOINT LeftFoot
				{
					OFFSET 2.562200 -7.039590 0.000000
					CHANNELS 3 Zrotation Yrotation Xrotation
					JOINT LeftToeBase
					{
						OFFSET 0.157640 -0.433110 2.322550
						CHANNELS 3 Zrotation Yrotation Xrotation
						End Site
						{
							OFFSET 0.000000 0.000000 0.000000
						}
					}
				}
			}
		}
	}
	JOINT RHipJoint
	{
		OFFSET 0.000000 0.000000 0.000000
		CHANNELS 3 Zrotation Yrotation Xrotation
		JOINT RightUpLeg
		{
			OFFSET -1.305520 -1.794630 0.839290
			CHANNELS 3 Zrotation Yrotation Xrotation
			JOINT RightLeg
			{
				OFFSET -2.542530 -6.985550 0.000000
				CHANNELS 3 Zrotation Yrotation Xrotation
				JOINT RightFoot
				{
					OFFSET -2.568260 -7.056230 0.000000
					CHANNELS 3 Zrotation Yrotation Xrotation
					JOINT RightToeBase
					{
						OFFSET -0.164730 -0.452590 2.363150
						CHANNELS 3 Zrotation Yrotation Xrotation
						End Site
						{
							OFFSET 0.000000 0.000000 0.000000
						}
					}
				}
			}
		}
	}
	JOINT LowerBack
	{
		OFFSET 0.000000 0.000000 0.000000
		CHANNELS 3 Zrotation Yrotation Xrotation
		JOINT Spine
		{
			OFFSET 0.028270 2.035590 -0.193380
			CHANNELS 3 Zrotation Yrotation Xrotation
			JOINT Spine1
			{
				OFFSET 0.056720 2.048850 -0.042750
				CHANNELS 3 Zrotation Yrotation Xrotation
				JOINT Neck
				{
					OFFSET 0.000000 0.000000 0.000000
					CHANNELS 3 Zrotation Yrotation Xrotation
					JOINT Neck1
					{
						OFFSET -0.054170 1.746240 0.172020
						CHANNELS 3 Zrotation Yrotation Xrotation
						JOINT Head
						{
							OFFSET 0.104070 1.761360 -0.123970
							CHANNELS 3 Zrotation Yrotation Xrotation
							End Site
							{
								OFFSET 0.000000 0.000000 0.000000
							}
						}
					}
				}
				JOINT LeftShoulder
				{
					OFFSET 0.000000 0.000000 0.000000
					CHANNELS 3 Zrotation Yrotation Xrotation
					JOINT LeftArm
					{
						OFFSET 3.362410 1.200890 -0.311210
						CHANNELS 3 Zrotation Yrotation Xrotation
						JOINT LeftForeArm
						{
							OFFSET 4.983000 -0.000000 -0.000000
							CHANNELS 3 Zrotation Yrotation Xrotation
							JOINT LeftHand
							{
								OFFSET 3.483560 -0.000000 -0.000000
								CHANNELS 3 Zrotation Yrotation Xrotation
								JOINT LeftFingerBase
								{
									OFFSET 0.000000 0.000000 0.000000
									CHANNELS 3 Zrotation Yrotation Xrotation
									JOINT LeftHandIndex1
									{
										OFFSET 0.715260 -0.000000 -0.000000
										CHANNELS 3 Zrotation Yrotation Xrotation
										End Site
										{
											OFFSET 0.000000 0.000000 0.000000
										}
									}
								}
								JOINT LThumb
								{
									OFFSET 0.000000 0.000000 0.000000
									CHANNELS 3 Zrotation Yrotation Xrotation
									End Site
									{
										OFFSET 0.000000 0.000000 0.000000
									}
								}
							}
						}
					}
				}
				JOINT RightShoulder
				{
					OFFSET 0.000000 0.000000 0.000000
					CHANNELS 3 Zrotation Yrotation Xrotation
					JOINT RightArm
					{
						OFFSET -3.136600 1.374050 -0.404650
						CHANNELS 3 Zrotation Yrotation Xrotation
						JOINT RightForeArm
						{
							OFFSET -5.241900 -0.000000 -0.000000
							CHANNELS 3 Zrotation Yrotation Xrotation
							JOINT RightHand
							{
								OFFSET -3.444170 -0.000000 -0.000000
								CHANNELS 3 Zrotation Yrotation Xrotation
								JOINT RightFingerBase
								{
									OFFSET 0.000000 0.000000 0.000000
									CHANNELS 3 Zrotation Yrotation Xrotation
									JOINT RightHandIndex1
									{
										OFFSET -0.622530 -0.000000 -0.000000
										CHANNELS 3 Zrotation Yrotation Xrotation
										End Site
										{
											OFFSET 0.000000 0.000000 0.000000
										}
									}
								}
								JOINT RThumb
								{
									OFFSET 0.000000 0.000000 0.000000
									CHANNELS 3 Zrotation Yrotation Xrotation
									End Site
									{
										OFFSET 0.000000 0.000000 0.000000
									}
								}
							}
						}
					}
				}
			}
		}
	}
}
MOTION
Frames: 10
Frame Time: 0.008333
-0.117401 18.151354 -0.203650 2.010555 -36.397088 23.036624 1.054471 4.411298 2.987782 -23.502368 1.474891 -33.639545 -0.481856 6.743891 21.902729 -7.316965 24.299316 -5.042904 0.090500 -1.940700 -5.341700 -1.441048 -5.662856 2.805975 2.100313 41.362925 -39.102226 -1.020812 -6.998228 23.654267 1.663963 -8.408052 4.510316 -0.632900 5.090400 -14.166500 5.879190 -3.332435 3.709688 27.498572 -4.064241 6.879502 1.038376 -0.806769 -7.404244 5.512587 5.146801 -2.111986 -28.945715 10.174681 8.096982 -10.788500 5.036500 2.770300 -14.680314 -2.784389 0.087540 -76.071498 -8.616419 74.288843 128.069836 -54.180379 -92.764202 2.244872 0.056336 5.381507 12.827968 22.064823 4.008000 -7.125000 0.000000 0.000000 -18.383300 51.387800 -2.977200 12.822323 6.947096 2.474321 61.425421 1.177107 46.715527 -142.551812 41.576443 -105.565236 -0.882919 1.260568 -2.429937 -1.528820 -1.620875 0.035700 7.125000 0.000000 0.000000 20.654300 -32.365200 6.777700 
-0.116792 18.148208 -0.205883 2.053119 -36.603046 23.123177 1.062674 4.393716 2.975837 -23.645636 1.603250 -33.813317 -0.473289 6.760737 21.926895 -7.328583 24.349910 -4.939731 0.111400 -2.151800 -5.925500 -1.473872 -5.654909 2.816230 1.949205 41.395221 -39.389867 -1.037305 -7.036392 23.735442 1.617018 -8.205160 4.544898 -0.606500 4.984800 -13.865200 5.770959 -3.279129 3.747201 27.481513 -4.011818 6.915158 1.086738 -0.773055 -7.393297 5.518398 5.202617 -2.099715 -29.105549 10.208530 7.873081 -10.847600 5.064900 2.727500 -14.687370 -2.791897 0.089713 -76.082442 -8.627338 74.210574 128.182525 -54.144369 -92.841293 2.251809 0.076414 5.439753 12.886237 22.309047 4.067500 -7.125000 0.000000 0.000000 -18.439600 51.610400 -3.089800 12.825127 6.945612 2.473446 61.387362 1.248924 46.827417 -142.574979 41.555009 -105.582746 -0.887339 1.258561 -2.379157 -1.566438 -1.663863 0.037900 7.125000 0.000000 0.000000 20.638900 -32.404500 6.751100 
-0.115168 18.147295 -0.203244 2.151180 -36.374464 23.101139 1.072720 4.390286 2.967987 -23.674522 1.447165 -33.801757 -0.473474 6.756691 21.921334 -7.297886 24.274186 -4.870411 0.116400 -2.199900 -6.058500 -1.477394 -5.639968 2.812830 1.822217 41.341104 -39.463457 -1.049381 -7.079151 23.823222 1.650906 -8.371904 4.363573 -0.561800 4.801000 -13.341800 5.909530 -3.387066 3.729670 27.458027 -4.141567 6.937714 1.032960 -0.835923 -7.406858 5.466786 5.263398 -2.157259 -29.195575 10.249785 7.663182 -10.871800 5.091400 2.694200 -14.680758 -2.800490 0.089471 -76.075606 -8.670879 74.146531 128.288788 -54.107035 -92.914953 2.259841 0.088314 5.511739 12.965237 22.455360 4.118900 -7.125000 0.000000 0.000000 -18.434700 51.749800 -3.153400 12.836592 6.944489 2.468272 61.361638 1.356361 46.913801 -142.598668 41.534099 -105.600609 -0.892502 1.254312 -2.348128 -1.603037 -1.734970 0.040300 7.125000 0.000000 0.000000 20.630400 -32.468400 6.713900 
-0.112936 18.145976 -0.201316 2.190814 -36.199154 23.109580 1.082709 4.390482 2.965892 -23.674214 1.326894 -33.807338 -0.473765 6.755788 21.915575 -7.286250 24.250538 -4.823744 0.121500 -2.247000 -6.188800 -1.483949 -5.625386 2.817199 1.760216 41.292350 -39.543196 -1.060447 -7.117080 23.903458 1.672005 -8.481403 4.251331 -0.564000 4.809800 -13.367000 6.061352 -3.479978 3.641772 27.430062 -4.282561 7.065732 0.990091 -0.887677 -7.332325 5.390039 5.334250 -2.161439 -29.315235 10.255076 7.308340 -10.913000 5.110800 2.609600 -14.666499 -2.829579 0.091050 -76.089148 -8.789592 74.051557 128.385896 -54.066849 -92.989755 2.266764 0.083870 5.503979 13.048418 22.398865 4.139800 -7.125000 0.000000 0.000000 -18.337600 51.714000 -3.119400 12.846274 6.941193 2.457198 61.348599 1.562516 46.982357 -142.592854 41.526177 -105.603103 -0.891515 1.255451 -2.288131 -1.591063 -1.724171 0.039500 7.125000 0.000000 0.000000 20.637500 -32.457900 6.722000 
-0.110298 18.144860 -0.200200 2.278314 -36.039615 23.092748 1.091652 4.369083 2.936473 -23.721031 1.240232 -33.800964 -0.470250 6.752679 21.915050 -7.276792 24.234091 -4.741868 0.131700 -2.338900 -6.443300 -1.485234 -5.626308 2.804122 1.660734 41.226605 -39.610161 -1.069618 -7.154973 23.979352 1.688308 -8.560308 4.088794 -0.488900 4.483400 -12.440900 6.067162 -3.496835 3.995769 27.567847 -4.209178 6.757247 1.029749 -0.887460 -7.612386 5.326965 5.347654 -1.995860 -29.528015 10.246085 7.175535 -10.991800 5.122800 2.553500 -14.687511 -2.797210 0.094384 -76.249121 -8.568702 74.119453 128.471401 -54.056012 -93.054829 2.268788 0.084351 5.557006 13.039437 22.416400 4.138200 -7.125000 0.000000 0.000000 -18.355000 51.726500 -3.128200 12.847302 6.925478 2.467592 61.251641 1.304945 47.072191 -142.700454 41.465149 -105.670073 -0.900858 1.254203 -2.281794 -1.686425 -1.773682 0.044800 7.125000 0.000000 0.000000 20.582500 -32.507400 6.675600 
-0.109892 18.143135 -0.200708 2.269454 -36.056125 23.166615 1.104560 4.353496 2.919893 -23.743386 1.259139 -33.886507 -0.464127 6.768839 21.947087 -7.268315 24.216830 -4.712005 0.132700 -2.347900 -6.468300 -1.495165 -5.629265 2.803199 1.574333 41.302336 -39.743098 -1.082782 -7.177491 24.043931 1.688653 -8.558342 3.964251 -0.444600 4.278400 -11.861200 6.065735 -3.452496 4.137505 27.658468 -4.125760 6.657880 1.067695 -0.855054 -7.690761 5.259839 5.373892 -1.931830 -29.721371 10.248144 7.011647 -11.062800 5.134800 2.510500 -14.697898 -2.791341 0.100290 -76.359763 -8.522122 74.153743 128.526126 -54.041996 -93.103417 2.269056 0.073852 5.628306 12.988913 22.317109 4.101900 -7.125000 0.000000 0.000000 -18.359500 51.629200 -3.084300 12.848781 6.917545 2.473214 61.159279 1.207951 47.091407 -142.822253 41.381288 -105.753705 -0.908196 1.238318 -2.318314 -1.699432 -1.982208 0.047900 7.125000 0.000000 0.000000 20.621700 -32.688800 6.593000 
-0.111008 18.139380 -0.202940 2.277703 -36.244555 23.283460 1.121047 4.332422 2.905479 -23.858232 1.392264 -34.077240 -0.456285 6.799502 22.019959 -7.230622 24.117252 -4.763665 0.119300 -2.226700 -6.132500 -1.519705 -5.626150 2.806252 1.431285 41.395582 -39.995803 -1.095342 -7.197957 24.088947 1.664433 -8.460078 3.978295 -0.412500 4.122800 -11.422300 5.882836 -3.398638 4.178564 27.773023 -4.067844 6.646457 1.216579 -0.811102 -7.659021 5.081824 5.456957 -1.947350 -29.832018 10.322196 6.837914 -11.081300 5.176200 2.484800 -14.700184 -2.797160 0.108477 -76.515830 -8.521130 74.059720 128.573959 -54.030227 -93.146015 2.271030 0.060322 5.714823 12.942186 22.199459 4.063600 -7.125000 0.000000 0.000000 -18.354400 51.516900 -3.031700 12.843913 6.913276 2.480662 61.009851 1.241595 47.140689 -142.869355 41.336988 -105.793706 -0.902065 1.237379 -2.274209 -1.621170 -1.974370 0.043600 7.125000 0.000000 0.000000 20.675800 -32.676300 6.619200 
-0.111718 18.134916 -0.204563 2.210976 -36.305283 23.415923 1.143194 4.315396 2.891520 -23.882863 1.503647 -34.249391 -0.445141 6.837185 22.103713 -7.188263 23.998237 -4.778036 0.122600 -2.257100 -6.216700 -1.537836 -5.621055 2.813354 1.436940 41.408879 -40.169517 -1.100186 -7.212729 24.114159 1.641618 -8.374750 4.060807 -0.466000 4.378800 -12.144800 5.864746 -3.371982 4.219351 27.831150 -4.042445 6.669445 1.269796 -0.789267 -7.646564 5.025503 5.522304 -1.978807 -29.922595 10.358655 6.595444 -11.110900 5.204800 2.439900 -14.700101 -2.804259 0.112584 -76.561987 -8.543088 73.991710 128.678282 -53.992649 -93.228449 2.272702 0.057257 5.632908 12.972076 22.143169 4.065600 -7.125000 0.000000 0.000000 -18.304300 51.473900 -3.003200 12.841220 6.911936 2.482594 60.986347 1.320590 47.160551 -142.864823 41.333619 -105.795243 -0.896947 1.246979 -2.220446 -1.598512 -1.851257 0.041100 7.125000 0.000000 0.000000 20.663900 -32.568100 6.672700 
-0.111515 18.131364 -0.205172 2.113294 -36.288732 23.546117 1.166550 4.301732 2.877240 -23.846493 1.557435 -34.397034 -0.432783 6.876545 22.182855 -7.163774 23.932019 -4.762932 0.131500 -2.337800 -6.440200 -1.549376 -5.620406 2.819486 1.455797 41.463400 -40.283563 -1.107030 -7.223828 24.144292 1.643414 -8.397041 4.071112 -0.475100 4.420300 -12.262300 5.975039 -3.358267 4.267090 27.827437 -4.023777 6.686563 1.231339 -0.781282 -7.661475 5.089304 5.557458 -1.911868 -30.078267 10.328216 6.275623 -11.188600 5.213400 2.353200 -14.701999 -2.814432 0.112407 -76.479563 -8.548928 73.984596 128.805998 -53.941762 -93.323706 2.274436 0.065285 5.559364 13.021381 22.197320 4.092900 -7.125000 0.000000 0.000000 -18.282500 51.529500 -3.024900 12.844061 6.908376 2.478978 61.022714 1.390676 47.189788 -142.867930 41.327886 -105.801744 -0.890998 1.255860 -2.232638 -1.564690 -1.731828 0.038200 7.125000 0.000000 0.000000 20.660000 -32.463400 6.727300 
-0.110805 18.131466 -0.204056 2.112053 -36.239551 23.555838 1.178633 4.300056 2.877444 -23.851605 1.554399 -34.454674 -0.418750 6.904844 22.255631 -7.143868 23.882335 -4.733067 0.132600 -2.347300 -6.466400 -1.556027 -5.617562 2.826485 1.445722 41.457258 -40.316661 -1.113368 -7.240297 24.184495 1.651957 -8.441789 4.027865 -0.459000 4.345800 -12.051600 6.085890 -3.351361 4.289612 27.766333 -4.029064 6.771803 1.168541 -0.780195 -7.664425 5.159184 5.570713 -1.971902 -30.208208 10.312128 6.076424 -11.248600 5.213500 2.319800 -14.700388 -2.821258 0.110481 -76.391312 -8.636762 74.056392 128.872165 -53.911826 -93.372309 2.282838 0.069684 5.555573 13.147216 22.232000 4.144400 -7.125000 0.000000 0.000000 -18.185400 51.580200 -3.031000 12.852006 6.911391 2.473432 61.091993 1.450332 47.126088 -142.904297 41.301030 -105.830360 -0.887494 1.263462 -2.167042 -1.547901 -1.641784 0.036400 7.125000 0.000000 0.000000 20.652200 -32.384500 6.766600 
